<?xml version="1.0" encoding="UTF-8" standalone="no"?>
<svg
   version="1.0"
   width="300.000000pt"
   height="115.000000pt"
   viewBox="0 0 300.000000 115.000000"
   preserveAspectRatio="xMidYMid meet"
   id="svg1"
   sodipodi:docname="rkitty-2010.svg"
   inkscape:version="1.4.2 (f4327f4, 2025-05-13)"
   xmlns:inkscape="http://www.inkscape.org/namespaces/inkscape"
   xmlns:sodipodi="http://sodipodi.sourceforge.net/DTD/sodipodi-0.dtd"
   xmlns="http://www.w3.org/2000/svg"
   xmlns:svg="http://www.w3.org/2000/svg">
  <defs
     id="defs1" />
  <sodipodi:namedview
     id="namedview1"
     pagecolor="#ffffff"
     bordercolor="#000000"
     borderopacity="0.25"
     inkscape:showpageshadow="2"
     inkscape:pageopacity="0.0"
     inkscape:pagecheckerboard="0"
     inkscape:deskcolor="#d1d1d1"
     inkscape:document-units="pt"
     inkscape:zoom="4.44"
     inkscape:cx="162.5"
     inkscape:cy="76.689189"
     inkscape:window-width="1920"
     inkscape:window-height="1017"
     inkscape:window-x="-8"
     inkscape:window-y="-8"
     inkscape:window-maximized="1"
     inkscape:current-layer="svg1" />
  <g
     transform="translate(0.000000,115.000000) scale(0.050000,-0.050000)"
     fill="#e2231a"
     stroke="none"
     id="g1">
    <path
       d="M2095 2283 c-46 -18 -237 -304 -221 -330 11 -18 -113 -8 -253 20 -49 10 -62 -2 -133 -111 -106 -165 -113 -157 -105 111 l7 232 -180 -12 c-278 -18 -270 -13 -270 -175 l0 -138 -275 -1 c-378 -2 -577 -22 -617 -63 -28 -28 -33 -95 -34 -500 -1 -598 -7 -582 224 -596 251 -15 242 -29 242 389 0 262 6 349 25 356 22 9 415 -24 431 -35 3 -2 14 -124 24 -271 11 -158 28 -272 42 -280 67 -42 345 -63 653 -49 l325 14 0 -49 c0 -73 380 -113 467 -50 30 23 64 307 73 620 0 8 17 15 37 15 35 0 37 -15 28 -185 -12 -241 12 -330 118 -426 l84 -75 271 13 c150 8 307 19 349 26 l78 13 -13 125 c-25 240 -49 279 -174 279 -127 0 -137 10 -138 131 l0 91 175 2 175 3 -6 -187 c-9 -243 15 -327 119 -421 l84 -75 251 12 c139 7 296 19 349 26 l97 14 -14 132 c-8 72 -28 166 -45 209 l-31 76 -105 -6 c-116 -8 -129 9 -129 168 0 59 0 60 91 46 66 -10 104 -6 137 16 43 28 222 -144 333 -321 20 -32 -7 -81 -199 -357 -288 -415 -289 -395 21 -608 189 -131 225 -128 307 24 284 522 808 1230 1070 1444 237 193 215 254 -133 363 -207 65 -220 60 -513 -233 l-216 -215 -61 83 c-33 46 -98 144 -144 219 -82 133 -84 135 -153 124 -188 -33 -392 -95 -430 -130 -106 -100 -130 -63 -130 196 l0 237 -242 36 c-290 42 -268 61 -285 -244 -16 -276 14 -238 -208 -256 l-185 -14 0 239 0 239 -241 36 c-275 40 -262 45 -275 -90 l-9 -102 -73 69 c-177 167 -307 213 -447 157z m336 -183 c127 -108 128 -111 39 -140 -66 -22 -76 -19 -141 38 -86 76 -88 76 -160 1 -57 -59 -126 -68 -174 -22 -18 18 117 209 159 224 69 25 172 -13 277 -101z m513 46 l95 -11 5 -243 c6 -229 8 -242 46 -237 22 3 87 0 145 -6 l105 -12 0 -90 0 -90 -143 6 -142 7 12 -179 c16 -216 33 -239 178 -240 l105 -1 18 -105 c22 -131 41 -118 -208 -134 -115 -7 -235 -18 -266 -24 -45 -8 -70 4 -135 69 l-79 79 0 273 0 272 -80 0 -80 0 0 90 0 90 90 0 90 0 0 228 c0 282 6 300 88 283 34 -7 104 -18 156 -25z m913 3 l102 -14 5 -242 c6 -228 8 -243 45 -236 21 4 87 1 145 -7 l106 -13 0 -90 0 -90 -142 6 -142 7 13 -180 c17 -216 33 -238 176 -239 l104 -1 17 -107 c22 -131 50 -115 -256 -139 -400 -30 -436 5 -428 415 l5 251 -84 6 c-77 6 -83 11 -83 64 0 31 -5 71 -12 88 -10 27 5 32 90 32 l102 0 0 215 c1 280 9 312 80 298 30 -6 100 -17 157 -24z m-2561 -344 c7 -368 10 -370 174 -131 75 108 137 198 138 200 6 8 310 -45 322 -57 7 -7 -73 -79 -178 -160 -178 -138 -218 -184 -173 -200 25 -9 524 -500 516 -508 -3 -4 -98 -11 -209 -17 l-203 -10 -125 224 c-68 123 -127 228 -131 233 -5 5 -25 -9 -46 -30 -37 -38 -36 -43 19 -237 l56 -198 -167 13 c-238 19 -221 0 -237 273 -12 201 -9 245 18 287 30 46 30 58 -2 166 -19 64 -38 186 -43 270 -9 174 -14 169 175 174 l90 3 6 -295z m1316 -17 c-6 -15 -30 -28 -54 -28 -53 0 -41 109 17 151 37 28 62 -57 37 -123z m-179 -193 c-8 -157 -19 -395 -26 -530 l-12 -245 -169 0 c-107 0 -164 7 -156 20 7 11 43 20 81 20 101 0 96 80 -10 189 -90 93 -95 117 -103 479 -5 223 -3 238 39 270 35 26 39 38 20 57 -20 20 14 25 162 25 l187 0 -13 -285z m3291 233 c195 -70 196 -72 76 -167 -98 -76 -281 -263 -410 -417 -85 -102 -613 -900 -680 -1029 -57 -110 -93 -138 -120 -95 -7 11 -66 57 -132 102 -66 44 -125 93 -131 108 -9 25 344 561 438 664 l41 45 -129 145 c-321 364 -426 544 -329 566 23 6 97 22 164 37 l122 28 114 -173 c63 -94 140 -202 171 -238 l56 -66 269 271 c300 301 278 291 480 219z m-4811 -43 c30 -20 91 -229 72 -248 -8 -8 -119 -3 -245 12 -358 41 -364 34 -359 -450 3 -330 18 -299 -134 -285 -150 14 -142 -18 -146 531 -2 307 3 397 23 404 98 30 256 30 256 -1 0 -30 4 -30 48 -1 34 22 109 34 245 38 108 4 202 8 207 11 6 2 20 -3 33 -11z m1033 -332 l12 -217 -124 117 c-68 64 -124 122 -124 129 0 13 215 201 221 193 2 -3 9 -103 15 -222z"
       id="path1" />
  </g>
  <path
     style="fill:#ffffff;stroke-width:0.225225"
     d="M 15.878378,98.943764 C 12.333569,98.57873 11.526835,98.423847 10.472973,97.905995 9.4174619,97.387333 9.142407,97.11407 8.6134216,96.058559 7.2289746,93.296101 6.883613,86.580599 6.8760058,62.274775 6.8693763,41.092638 7.0974809,37.549389 8.5116036,36.868318 10.410079,35.953972 17.848976,35.147559 21.326668,35.479102 c 3.256079,0.310416 4.01117,0.710586 4.01117,2.125773 0,0.874186 0.599565,0.961138 1.782152,0.258455 4.362548,-2.592191 6.717629,-2.973693 22.42956,-3.633393 4.459459,-0.18724 8.434166,-0.400214 8.832684,-0.473277 0.498795,-0.09145 1.035453,0.01765 1.722239,0.350119 0.827405,0.400539 1.132394,0.740896 1.787153,1.994397 1.412723,2.704579 3.214029,8.539903 3.746392,12.136422 0.237525,1.604671 0.157367,2.286073 -0.306275,2.603548 -0.65575,0.449019 -7.317011,0.05733 -16.795707,-0.987598 -7.300511,-0.804807 -12.958171,-1.04881 -15.21948,-0.656382 -4.49009,0.77921 -6.364532,3.058936 -7.449961,9.060762 -0.328141,1.814437 -0.398308,4.601428 -0.512238,20.345676 -0.124108,17.150714 -0.157203,18.301085 -0.552634,19.209103 -0.779034,1.788876 -1.566293,1.888665 -8.923345,1.131057 z"
     id="path2"
     transform="scale(0.75)" />
  <path
     style="fill:#ffffff;stroke-width:0.225225"
     d="M 87.162162,91.542194 C 82.826577,91.193162 78.475718,90.791475 77.493588,90.649559 73.520555,90.075457 72.06293,88.957777 71.329984,85.923423 70.744779,83.500709 69.904653,70.270117 69.87838,63.063063 c -0.01884,-5.167606 0.261605,-6.628973 1.747775,-9.107527 0.552424,-0.921304 1.06921,-2.020525 1.148413,-2.442714 0.25367,-1.352176 -0.0583,-3.454272 -1.02227,-6.888104 -2.13136,-7.592315 -3.367708,-16.170641 -3.460516,-24.010588 -0.07556,-6.383083 0.286088,-6.603718 11.435761,-6.976707 3.343392,-0.111847 6.095362,-0.185482 6.115488,-0.163634 0.02013,0.02185 0.151116,5.766076 0.291088,12.76495 0.278677,13.934351 0.566164,21.171991 0.93013,23.416513 0.441612,2.723347 1.226964,3.577759 2.624365,2.855133 1.373697,-0.710365 2.971679,-2.809617 11.083226,-14.559935 3.37778,-4.893018 6.281,-9.042234 6.4516,-9.220481 0.26974,-0.281823 0.71478,-0.271853 3.41274,0.07645 6.47079,0.835368 17.85481,3.08709 17.85481,3.531623 0,0.729455 -3.8341,4.088614 -13.01994,11.40711 -9.2394,7.361171 -12.00423,10.214209 -11.33077,11.692281 0.13534,0.297045 0.48283,0.630093 0.77218,0.740106 0.71598,0.272214 4.3096,3.54568 11.29796,10.29143 7.35334,7.098064 23.09138,22.945913 23.09138,23.252503 0,0.126182 -0.0775,0.27734 -0.1723,0.335907 -0.56091,0.346667 -26.60566,1.845327 -26.88318,1.546906 -0.0833,-0.08956 -3.59522,-6.345275 -7.8043,-13.901581 C 95.822876,62.229253 95.204288,61.14865 94.965739,61.14865 c -0.420536,0 -2.267838,1.382808 -3.226928,2.415536 -1.236647,1.331594 -1.639195,2.524245 -1.418586,4.202914 0.213214,1.622406 1.752518,7.513077 4.347198,16.636054 l 2.225971,7.826577 -0.924176,-0.02647 c -0.508295,-0.01456 -4.47147,-0.312039 -8.807056,-0.66107 z"
     id="path3"
     transform="scale(0.75)" />
  <path
     style="fill:#ffffff;stroke-width:0.225225"
     d="m 141.21622,98.297842 c -2.05385,-0.201547 -3.11781,-0.538308 -2.98761,-0.945624 0.16088,-0.503263 2.39121,-1.066786 4.96719,-1.255031 3.89524,-0.284651 5.11842,-1.129734 5.10882,-3.529619 -0.009,-2.339154 -1.76704,-5.256034 -5.80269,-9.629579 -2.77509,-3.007446 -3.87177,-4.701361 -4.66698,-7.208536 -1.22435,-3.860208 -1.73078,-11.699228 -1.77132,-27.418642 -0.0223,-8.660198 0.0336,-10.909156 0.29373,-11.805591 0.32132,-1.107392 0.78438,-1.662125 3.24982,-3.893212 1.21334,-1.098007 1.30936,-1.649479 0.48236,-2.770407 -0.65837,-0.892381 -0.53681,-1.096313 0.82703,-1.387427 1.29348,-0.276096 22.03401,-0.535169 22.03346,-0.275224 -0.001,0.643543 -1.29841,27.806023 -2.25728,47.2715 -0.61631,12.511262 -1.12058,22.823762 -1.12062,22.916667 -8e-5,0.220784 -16.01607,0.160338 -18.35591,-0.06927 z"
     id="path4"
     transform="scale(0.75)" />
  <path
     style="fill:#ffffff;stroke-width:0.225225"
     d="m 135.63018,22.99928 c -1.21229,-0.451783 -2.63472,-1.485755 -2.63451,-1.915046 8.9e-4,-1.814527 6.81951,-11.5151473 9.57059,-13.6157535 1.96974,-1.5040074 4.95165,-1.6325053 8.70473,-0.3751081 4.411,1.4778208 8.2733,4.0475006 14.49732,9.6454176 2.19649,1.97553 3.12694,3.282287 2.78802,3.915574 -0.46507,0.868984 -5.54187,2.658107 -7.53192,2.654333 -1.49143,-0.0028 -2.6517,-0.700294 -6.18207,-3.716181 -3.1417,-2.683863 -4.09152,-3.263687 -5.34632,-3.263687 -1.08327,0 -1.42957,0.241762 -4.39758,3.070069 -2.99955,2.858352 -4.55859,3.714738 -6.98586,3.837356 -1.04136,0.05261 -1.93402,-0.03261 -2.4824,-0.236974 z"
     id="path5"
     transform="scale(0.75)" />
  <path
     style="fill:#ffffff;stroke-width:0.225225"
     d="m 190.46098,100.74766 c -1.67762,-0.28925 -2.93238,-1.249155 -7.40918,-5.668142 l -4.33558,-4.279597 V 72.708518 54.617117 h -5.2928 -5.29279 V 48.648649 42.68018 h 5.94199 5.94198 l 0.11756,-14.02027 c 0.11714,-13.971651 0.22348,-15.971156 0.97004,-18.240389 0.65399,-1.9878655 1.65191,-2.3023841 5.15906,-1.6260106 2.83142,0.5460543 8.69692,1.4277076 11.92131,1.7919096 1.61895,0.182866 3.25779,0.38615 3.64186,0.451744 l 0.6983,0.11926 0.15554,8.836202 c 0.19005,10.796336 0.51309,18.726559 0.83927,20.602962 0.43764,2.517556 0.29566,2.455939 5.99134,2.600286 2.73739,0.06937 6.59779,0.329899 8.73436,0.58945 2.10586,0.25582 3.95552,0.466545 4.11036,0.46828 0.218,0.0024 0.28154,1.33743 0.28156,5.915315 l 2e-5,5.912162 -6.02479,-0.255011 c -3.31364,-0.140257 -7.61791,-0.331063 -9.56503,-0.424014 l -3.54022,-0.169 0.10978,1.099687 c 0.0604,0.604829 0.314,4.190906 0.5636,7.969059 0.82175,12.438597 1.66923,15.992684 4.21304,17.668358 1.57233,1.03573 3.09753,1.269678 9.19597,1.410561 l 5.6506,0.130536 0.93965,5.429056 c 1.34974,7.798408 1.28778,8.396505 -0.93378,9.014189 -1.76265,0.490093 -2.28824,0.542439 -11.53229,1.148586 -8.69904,0.57041 -14.25415,1.041882 -18.12247,1.538102 -1.21627,0.15602 -2.57304,0.2022 -3.12826,0.10647 z"
     id="path6"
     transform="scale(0.75)" />
  <path
     style="fill:#ffffff;stroke-width:0.225225"
     d="m 251.34773,99.787347 c -6.58667,-1.024068 -9.42805,-4.091532 -10.58818,-11.430662 -0.49714,-3.144955 -0.6469,-12.584811 -0.37983,-23.942271 0.11651,-4.954955 0.17608,-9.050182 0.13237,-9.100506 -0.0437,-0.05033 -1.88955,-0.229696 -4.10188,-0.398602 -6.70952,-0.512259 -6.77317,-0.558155 -7.03076,-5.069833 -0.0942,-1.649246 -0.35389,-3.68316 -0.57718,-4.519815 -0.36776,-1.378039 -0.37291,-1.554244 -0.0547,-1.872469 0.48185,-0.481849 3.62189,-0.759367 8.67735,-0.766905 l 4.09159,-0.0061 0.10283,-14.245495 c 0.10926,-15.137523 0.2012,-16.51089 1.24189,-18.5508173 0.76559,-1.5006792 1.72966,-1.7076102 5.03055,-1.0797717 1.03564,0.1969825 4.99908,0.7877447 8.80765,1.312805 3.80857,0.52506 6.96537,0.997338 7.01513,1.049507 0.0498,0.05217 0.20736,5.213097 0.35024,11.468727 0.27124,11.875599 0.5343,17.288529 0.90754,18.674658 0.4445,1.650739 0.32079,1.610275 5.19083,1.697867 3.0423,0.05472 5.73213,0.257892 8.77826,0.663056 2.41554,0.321293 4.51858,0.584588 4.67342,0.585104 0.21805,7.25e-4 0.28155,1.334052 0.2816,5.913099 l 6e-5,5.912162 -5.91222,-0.255836 c -3.25173,-0.140709 -7.50851,-0.331662 -9.45953,-0.42434 -3.03074,-0.14397 -3.54729,-0.12081 -3.54729,0.159048 0,0.925993 1.16106,15.65459 1.3638,17.300407 0.55859,4.534597 1.38567,7.09453 2.74716,8.5028 1.48955,1.540739 4.38684,2.066608 11.44316,2.076975 l 3.95502,0.0058 0.95161,5.799549 c 0.52339,3.189753 0.94802,6.184458 0.94363,6.654899 -0.0179,1.913809 -1.50985,2.396876 -9.49333,3.073728 -13.52846,1.146955 -21.71725,1.407685 -25.5408,0.813225 z"
     id="path7"
     transform="scale(0.75)" />
  <path
     style="fill:#ffffff;stroke-width:0.225225"
     d="m 306.00688,145.19878 c -1.51903,-1.55838 -3.86582,-3.38269 -8.59697,-6.68296 -5.3205,-3.71139 -8.78378,-6.57802 -8.78378,-7.27052 0,-1.26175 7.04171,-12.75388 15.44,-25.19821 6.78593,-10.055176 11.30894,-16.213705 14.61285,-19.896835 0.94372,-1.052046 1.68784,-2.029663 1.65358,-2.172485 -0.0343,-0.14282 -2.61108,-3.133407 -5.72626,-6.64575 -18.7438,-21.133459 -26.88107,-32.570177 -26.88107,-37.780608 0,-1.367823 0.74118,-2.380924 1.98716,-2.716197 0.69117,-0.185982 16.63381,-3.806294 18.55134,-4.212704 0.58063,-0.123062 0.8086,0.177514 5.43083,7.160554 7.5097,11.345291 11.83222,17.364214 15.79178,21.98937 l 2.17293,2.5382 15.25144,-15.289208 c 17.58016,-17.623679 19.28586,-19.114542 22.88531,-20.002795 2.53868,-0.626481 4.5584,-0.123951 14.7154,3.661365 5.81448,2.166943 7.49308,3.127233 7.49308,4.28661 0,0.775763 -1.54712,2.360018 -5.29279,5.419823 -7.02568,5.739217 -16.87602,15.648653 -25.92649,26.082038 -3.90922,4.50655 -14.08429,19.272232 -29.02302,42.117122 -10.33092,15.79846 -14.76026,22.82255 -17.74862,28.14596 -2.94655,5.24891 -4.02852,6.74687 -5.38753,7.45884 -0.9701,0.50822 -1.26664,0.39595 -2.61917,-0.99161 z"
     id="path8"
     transform="scale(0.75)" />
</svg>
